<?xml version="1.0" encoding="utf-8"?>
<!-- Generator: Adobe Illustrator 25.4.1, SVG Export Plug-In . SVG Version: 6.00 Build 0)  -->
<svg version="1.1" id="aigueMin" xmlns="http://www.w3.org/2000/svg" xmlns:xlink="http://www.w3.org/1999/xlink" x="0px" y="0px"
	 viewBox="0 0 1080 1080" style="enable-background:new 0 0 1080 1080;" xml:space="preserve">
	 <style type="text/css">
	.st3{fill:#ffffff;}
</style>
<path class="st3" d="M586.9,216.4c-0.3,2.2-1.5,4.2-3.2,5.5c-1.4,1-3.1,1.7-5,1.7c-4.1,0-7.4-2.9-8.1-6.8c0.7-1.8,1.2-3.8,1.2-5.8v-0.3
	c0-0.8-0.1-1.7-0.2-2.4c-0.2-1.6-0.7-3.2-1.4-4.6l-3.4-4.7l-11.9-16.3c-10.9-14.9-14.1-35.4-15-45.9v-6c0,0,0,1.5-0.2,4
	c-0.2-3-0.2-4.7-0.2-4.7v7.6c-0.9,10.5-4.1,31-14.9,45.9l-11.9,16.3l-3.4,4.7c-0.7,1.4-1.2,3-1.4,4.6c-0.1,0.8-0.2,1.6-0.2,2.4
	c0,0.1,0,0.2,0,0.3c0,2.1,0.5,4,1.2,5.8c-0.6,3.9-4,6.8-8.1,6.8c-1.9,0-3.6-0.6-5-1.7c-1.7-1.3-2.9-3.3-3.2-5.5
	c0,0.4-0.1,0.8-0.1,1.1c0,2.3,0.7,4.4,2,6.1c1.9,2.6,5,4.4,8.5,4.4c4.1,0,7.7-2.4,9.4-5.9c2.9,2.9,6.9,4.6,11.3,4.6c1,0,2-0.1,3-0.3
	c-6.4-0.4-11.5-5.8-11.5-12.3c0-6.8,5.5-12.3,12.3-12.3c3.1,0,6,1.2,8.1,3.1l0.1,74.9c-0.5,0.2-0.9,0.3-1.4,0.6
	c-4,2-6.8,6.1-6.7,10.9c0,5.3,3.4,9.8,8.1,11.4v17.8l-4.3,197.3c-8.6,3.3-14.6,11.7-14.6,21.4c0,9.4,5.6,17.5,13.7,21l-3,137h25
	L549.3,561c7.9-3.6,13.5-11.6,13.5-20.9c0-9.7-6-18-14.5-21.4l-4.6-197.3v-17.8c0.5-0.2,0.9-0.3,1.3-0.6c4-2,6.8-6.1,6.8-10.9
	c0-5.3-3.4-9.8-8.1-11.4l-0.1-75.7c2.2-1.9,5-3.1,8.1-3.1c6.8,0,12.3,5.5,12.3,12.3c0,6.5-5.1,11.9-11.5,12.3c1,0.2,2,0.3,3,0.3
	c4.4,0,8.4-1.8,11.3-4.6c1.7,3.5,5.3,5.9,9.4,5.8c3.5,0,6.6-1.7,8.5-4.4c1.2-1.7,2-3.8,2-6.1C587,217.1,586.9,216.8,586.9,216.4z
	 M548.7,525.4c5,3,8.3,8.4,8.3,14.6c0,5.9-3,11.1-7.6,14.2c-2.7,1.8-5.9,2.8-9.4,2.8c-3.4,0-6.5-1-9.2-2.7c-4.7-3-7.8-8.3-7.8-14.3
	c0-6.3,3.4-11.8,8.5-14.7c2.5-1.5,5.4-2.3,8.5-2.3C543.2,523,546.1,523.9,548.7,525.4z M543.9,287.5c0.1,0.1,0.2,0.2,0.3,0.3
	c1.2,1.2,1.8,2.7,1.8,4.3c0,1.8-0.8,3.5-2.1,4.6c-0.4,0.3-0.8,0.6-1.3,0.9c-0.8,0.4-1.7,0.6-2.7,0.6c-1.5,0-2.9-0.5-4-1.5
	c-0.1-0.1-0.2-0.2-0.3-0.3c-1.2-1.2-1.8-2.7-1.8-4.3c0-1.8,0.8-3.5,2.1-4.6c0.4-0.3,0.8-0.6,1.3-0.9c0.8-0.4,1.8-0.6,2.7-0.6
	C541.4,286,542.8,286.5,543.9,287.5z"/>
</svg>
