<?xml version="1.0" encoding="utf-8"?>
<!-- Generator: Adobe Illustrator 25.4.1, SVG Export Plug-In . SVG Version: 6.00 Build 0)  -->
<svg version="1.1" id="aigueSec" xmlns="http://www.w3.org/2000/svg" xmlns:xlink="http://www.w3.org/1999/xlink" x="0px" y="0px"
	 viewBox="0 0 1080 1080" style="enable-background:new 0 0 1080 1080;" xml:space="preserve">
	 <style type="text/css">
	.st3{fill:#ffffff;}
</style>
<path class="st3" d="M543.9,517.3l-1.3-283C544.1,224,548,217,548,217s-5-73.2-5.9-107L542,96h-4l-0.1,14c-1,33.8-5.9,107-5.9,107
	s3.9,7,5.4,17.4l-1.3,283c-10.8,1.8-19.1,11.3-19.1,22.7c0,12.7,10.3,23,23,23s23-10.3,23-23C563,528.6,554.7,519.2,543.9,517.3z
	 M540,557c-9.4,0-17-7.6-17-17c0-8,5.6-14.8,13.1-16.5c1.3-0.3,2.6-0.5,3.9-0.5s2.7,0.2,3.9,0.5c7.5,1.8,13.1,8.5,13.1,16.5
	C557,549.4,549.4,557,540,557z"/>
</svg>
