<?xml version="1.0" encoding="utf-8"?>
<!-- Generator: Adobe Illustrator 25.4.1, SVG Export Plug-In . SVG Version: 6.00 Build 0)  -->
<svg version="1.1" id="Calque_1" xmlns="http://www.w3.org/2000/svg" xmlns:xlink="http://www.w3.org/1999/xlink" x="0px" y="0px"
	 viewBox="0 0 1080 1080" style="enable-background:new 0 0 1080 1080;" xml:space="preserve">
<style type="text/css">
	.st0{fill:none;stroke:#ffffff;stroke-width:3;stroke-miterlimit:10;}
	.st1{fill:none;stroke:#ffffff;stroke-miterlimit:10;}
	#heure{fill:#ffffff}
	#rondExt{fill:#ffffff}
	#rondInt{fill:#ffffff}
</style>
<g id="minute">
	<line class="st0" x1="537.5" y1="39" x2="538" y2="85"/>
	<line class="st1" x1="589.9" y1="41.6" x2="587.6" y2="63.5"/>
	<line class="st1" x1="641.8" y1="49.7" x2="637.3" y2="71.2"/>
	<line class="st1" x1="692.6" y1="63.2" x2="685.8" y2="84.1"/>
	<line class="st1" x1="741.6" y1="81.9" x2="732.7" y2="102"/>
	<line class="st0" x1="788.8" y1="105.8" x2="766.2" y2="145.9"/>
	<line class="st1" x1="832.9" y1="134.4" x2="820" y2="152.2"/>
	<line class="st1" x1="873.8" y1="167.4" x2="859.1" y2="183.7"/>
	<line class="st1" x1="911" y1="204.4" x2="894.6" y2="219.1"/>
	<line class="st1" x1="944.1" y1="245.2" x2="926.3" y2="258.1"/>
	<line class="st0" x1="973" y1="289.5" x2="933.4" y2="312.9"/>
	<line class="st1" x1="996.9" y1="336.3" x2="976.8" y2="345.2"/>
	<line class="st1" x1="1015.7" y1="385.3" x2="994.8" y2="392.1"/>
	<line class="st1" x1="1029.4" y1="436" x2="1007.9" y2="440.6"/>
	<line class="st1" x1="1037.7" y1="487.9" x2="1015.8" y2="490.1"/>
	<line class="st0" x1="1040.5" y1="540.7" x2="994.5" y2="541.1"/>
	<line class="st1" x1="1037.8" y1="593.1" x2="1015.9" y2="590.8"/>
	<line class="st1" x1="1029.6" y1="645" x2="1008.1" y2="640.4"/>
	<line class="st1" x1="1016" y1="695.7" x2="995.1" y2="688.9"/>
	<line class="st1" x1="997.2" y1="744.8" x2="977.2" y2="735.8"/>
	<line class="st0" x1="973.2" y1="791.9" x2="933.2" y2="769.3"/>
	<line class="st1" x1="944.6" y1="836" x2="926.9" y2="823"/>
	<line class="st1" x1="911.6" y1="876.8" x2="895.3" y2="862.1"/>
	<line class="st1" x1="874.5" y1="913.9" x2="859.8" y2="897.6"/>
	<line class="st1" x1="833.7" y1="947" x2="820.8" y2="929.2"/>
	<line class="st0" x1="789.3" y1="975.8" x2="766" y2="936.2"/>
	<line class="st1" x1="742.5" y1="999.6" x2="733.6" y2="979.5"/>
	<line class="st1" x1="693.5" y1="1018.4" x2="686.7" y2="997.5"/>
	<line class="st1" x1="642.7" y1="1032" x2="638.2" y2="1010.5"/>
	<line class="st1" x1="590.9" y1="1040.2" x2="588.6" y2="1018.3"/>
	<line class="st0" x1="538" y1="1043" x2="537.7" y2="997"/>
	<line class="st1" x1="485.6" y1="1040.2" x2="487.9" y2="1018.3"/>
	<line class="st1" x1="433.7" y1="1031.9" x2="438.3" y2="1010.4"/>
	<line class="st1" x1="383" y1="1018.3" x2="389.9" y2="997.4"/>
	<line class="st1" x1="334" y1="999.4" x2="343" y2="979.3"/>
	<line class="st0" x1="286.9" y1="975.3" x2="309.6" y2="935.3"/>
	<line class="st1" x1="242.9" y1="946.7" x2="255.9" y2="928.9"/>
	<line class="st1" x1="202.1" y1="913.6" x2="216.9" y2="897.3"/>
	<line class="st1" x1="165" y1="876.4" x2="181.4" y2="861.7"/>
	<line class="st1" x1="132" y1="835.5" x2="149.9" y2="822.7"/>
	<line class="st0" x1="103.3" y1="791.1" x2="142.9" y2="767.8"/>
	<line class="st1" x1="79.5" y1="744.3" x2="99.6" y2="735.4"/>
	<line class="st1" x1="60.8" y1="695.2" x2="81.7" y2="688.5"/>
	<line class="st1" x1="47.3" y1="644.5" x2="68.8" y2="640"/>
	<line class="st1" x1="39.2" y1="592.6" x2="61" y2="590.4"/>
	<line class="st0" x1="36.5" y1="539.8" x2="82.5" y2="539.5"/>
	<line class="st1" x1="39.4" y1="487.3" x2="61.2" y2="489.7"/>
	<line class="st1" x1="47.7" y1="435.5" x2="69.2" y2="440.1"/>
	<line class="st1" x1="61.4" y1="384.8" x2="82.3" y2="391.7"/>
	<line class="st1" x1="80.3" y1="335.8" x2="100.4" y2="344.8"/>
	<line class="st0" x1="104.5" y1="288.7" x2="144.4" y2="311.5"/>
	<line class="st1" x1="133.2" y1="244.7" x2="150.9" y2="257.8"/>
	<line class="st1" x1="166.4" y1="204" x2="182.6" y2="218.8"/>
	<line class="st1" x1="203.6" y1="167" x2="218.2" y2="183.4"/>
	<line class="st1" x1="244.5" y1="134.1" x2="257.3" y2="151.9"/>
	<line class="st0" x1="289" y1="105.4" x2="312.2" y2="145.1"/>
	<line class="st1" x1="335.8" y1="81.7" x2="344.7" y2="101.8"/>
	<line class="st1" x1="384.9" y1="63" x2="391.6" y2="84"/>
	<line class="st1" x1="435.7" y1="49.6" x2="440.2" y2="71.1"/>
	<line class="st1" x1="487.6" y1="41.5" x2="489.8" y2="63.4"/>
</g>
<g id="heure">
	<g>
		<path d="M498.4,105.9h23.3v0.3l-8.9,0.9c1,1.6,1.9,3,2.8,4.2c0.9,1.2,1.8,2.5,2.8,3.8c1,1.3,2.2,2.7,3.4,4.1
			c1.2,1.4,2.5,2.9,3.8,4.4c1.4-1.5,3.1-3.3,5-5.5c1.9-2.2,3.6-4.2,5.1-6.1c1.5-1.9,2.6-3.5,3.5-4.9l-8.5-0.9v-0.3h18.6v0.3
			l-6.5,0.9c-1.2,1.1-2.5,2.5-4,4.1s-3.1,3.5-4.7,5.6c-1.7,2-3.1,3.8-4.3,5.4c-1.2,1.6-2,2.8-2.5,3.5c1.1,1.5,2.6,3.4,4.4,5.7
			c1.8,2.3,3.4,4.3,4.9,6.1s2.8,3.4,4.1,4.8c1.3,1.5,2.5,2.7,3.5,3.5l5.2,0.9v0.3h-22.6v-0.3l8.8-1c-1.5-2.6-3.5-5.5-6-8.6
			c-2.5-3.1-4.9-6-7.2-8.5c-1.9,2-3.7,4-5.5,6.1c-1.8,2.1-3.4,4.1-4.9,6.1c-1.5,1.9-2.7,3.6-3.6,4.9l8.5,1v0.3h-18.5v-0.3l6.4-1
			c2.7-2.6,5.5-5.8,8.6-9.6c3.1-3.8,5.6-6.9,7.4-9.6c-1.8-2.4-3.6-4.8-5.5-7.2c-1.9-2.4-3.8-4.7-5.7-7c-1.9-2.3-3.6-4.1-4.8-5.2
			l-6.2-0.9V105.9z M506.1,106.9l31.5,39h2.3l-31.4-39H506.1z"/>
		<path d="M571.4,147h-21v-0.3l6.8-1c0.3-2.3,0.6-5.2,0.7-8.5c0.2-3.3,0.2-6.5,0.2-9.7v-4.7c0-6.4-0.3-11.6-0.8-15.6l-6.9-1v-0.3h21
			v0.3l-7,1c-0.2,1.8-0.4,3.5-0.4,4.9c-0.1,1.5-0.2,3.2-0.2,5.3c-0.1,2.1-0.1,4-0.1,5.9v6.2c0,1.1,0,3,0.1,5.6
			c0.1,2.6,0.2,4.8,0.3,6.6c0.1,1.8,0.3,3.1,0.4,4l6.9,1V147z M558.9,107v38.9h1.9V107H558.9z"/>
		<path d="M593.3,147h-21v-0.3l6.8-1c0.3-2.3,0.6-5.2,0.7-8.5c0.2-3.3,0.2-6.5,0.2-9.7v-4.7c0-6.4-0.3-11.6-0.8-15.6l-6.9-1v-0.3h21
			v0.3l-7,1c-0.2,1.8-0.4,3.5-0.4,4.9c-0.1,1.5-0.2,3.2-0.2,5.3c-0.1,2.1-0.1,4-0.1,5.9v6.2c0,1.1,0,3,0.1,5.6
			c0.1,2.6,0.2,4.8,0.3,6.6c0.1,1.8,0.3,3.1,0.4,4l6.9,1V147z M580.8,107v38.9h1.9V107H580.8z"/>
	</g>
	<g>
		<path d="M754.4,203.9h-21v-0.3l6.8-1c0.3-2.3,0.6-5.2,0.7-8.5c0.2-3.3,0.2-6.5,0.2-9.7v-4.7c0-6.4-0.3-11.6-0.8-15.6l-6.9-1v-0.3
			h21v0.3l-7,1c-0.2,1.8-0.4,3.5-0.4,4.9c-0.1,1.5-0.2,3.2-0.2,5.3c-0.1,2.1-0.1,4-0.1,5.9v6.2c0,1.1,0,3,0.1,5.6
			c0.1,2.6,0.2,4.8,0.3,6.6c0.1,1.8,0.3,3.1,0.4,4l6.9,1V203.9z M741.9,163.9v38.9h1.9v-38.9H741.9z"/>
	</g>
	<g>
		<path d="M891.1,352.8h-21v-0.3l6.8-1c0.3-2.3,0.6-5.2,0.7-8.5c0.2-3.3,0.2-6.5,0.2-9.7v-4.7c0-6.4-0.3-11.6-0.8-15.6l-6.9-1v-0.3
			h21v0.3l-7,1c-0.2,1.8-0.4,3.5-0.4,4.9c-0.1,1.5-0.2,3.2-0.2,5.3c-0.1,2.1-0.1,4-0.1,5.9v6.2c0,1.1,0,3,0.1,5.6
			c0.1,2.6,0.2,4.8,0.3,6.6c0.1,1.8,0.3,3.1,0.4,4l6.9,1V352.8z M878.5,312.8v38.9h1.9v-38.9H878.5z"/>
		<path d="M913,352.8h-21v-0.3l6.8-1c0.3-2.3,0.6-5.2,0.7-8.5c0.2-3.3,0.2-6.5,0.2-9.7v-4.7c0-6.4-0.3-11.6-0.8-15.6l-6.9-1v-0.3h21
			v0.3l-7,1c-0.2,1.8-0.4,3.5-0.4,4.9c-0.1,1.5-0.2,3.2-0.2,5.3c-0.1,2.1-0.1,4-0.1,5.9v6.2c0,1.1,0,3,0.1,5.6
			c0.1,2.6,0.2,4.8,0.3,6.6c0.1,1.8,0.3,3.1,0.4,4l6.9,1V352.8z M900.5,312.8v38.9h1.9v-38.9H900.5z"/>
	</g>
	<g>
		<path d="M936.5,558.6h-21v-0.3l6.8-1c0.3-2.3,0.6-5.2,0.7-8.5c0.2-3.3,0.2-6.5,0.2-9.7v-4.7c0-6.4-0.3-11.6-0.8-15.6l-6.9-1v-0.3
			h21v0.3l-7,1c-0.2,1.8-0.4,3.5-0.4,4.9c-0.1,1.5-0.2,3.2-0.2,5.3c-0.1,2.1-0.1,4-0.1,5.9v6.2c0,1.1,0,3,0.1,5.6
			c0.1,2.6,0.2,4.8,0.3,6.6c0.1,1.8,0.3,3.1,0.4,4l6.9,1V558.6z M924,518.6v38.9h1.9v-38.9H924z"/>
		<path d="M958.4,558.6h-21v-0.3l6.8-1c0.3-2.3,0.6-5.2,0.7-8.5c0.2-3.3,0.2-6.5,0.2-9.7v-4.7c0-6.4-0.3-11.6-0.8-15.6l-6.9-1v-0.3
			h21v0.3l-7,1c-0.2,1.8-0.4,3.5-0.4,4.9c-0.1,1.5-0.2,3.2-0.2,5.3c-0.1,2.1-0.1,4-0.1,5.9v6.2c0,1.1,0,3,0.1,5.6
			c0.1,2.6,0.2,4.8,0.3,6.6c0.1,1.8,0.3,3.1,0.4,4l6.9,1V558.6z M945.9,518.6v38.9h1.9v-38.9H945.9z"/>
		<path d="M980.3,558.6h-21v-0.3l6.8-1c0.3-2.3,0.6-5.2,0.7-8.5c0.2-3.3,0.2-6.5,0.2-9.7v-4.7c0-6.4-0.3-11.6-0.8-15.6l-6.9-1v-0.3
			h21v0.3l-7,1c-0.2,1.8-0.4,3.5-0.4,4.9c-0.1,1.5-0.2,3.2-0.2,5.3c-0.1,2.1-0.1,4-0.1,5.9v6.2c0,1.1,0,3,0.1,5.6
			c0.1,2.6,0.2,4.8,0.3,6.6c0.1,1.8,0.3,3.1,0.4,4l6.9,1V558.6z M967.8,518.6v38.9h1.9v-38.9H967.8z"/>
	</g>
	<g>
		<path d="M880.9,766.5h-21v-0.3l6.8-1c0.3-2.3,0.6-5.2,0.7-8.5c0.2-3.3,0.2-6.5,0.2-9.7v-4.7c0-6.4-0.3-11.6-0.8-15.6l-6.9-1v-0.3
			h21v0.3l-7,1c-0.2,1.8-0.4,3.5-0.4,4.9c-0.1,1.5-0.2,3.2-0.2,5.3c-0.1,2.1-0.1,4-0.1,5.9v6.2c0,1.1,0,3,0.1,5.6
			c0.1,2.6,0.2,4.8,0.3,6.6c0.1,1.8,0.3,3.1,0.4,4l6.9,1V766.5z M868.4,726.5v38.9h1.9v-38.9H868.4z"/>
		<path d="M901,725.7l-7.3,1c1,3.7,2.7,8.2,4.9,13.4l3.9,9.1c0.9,2.1,2.1,4.7,3.8,8c0.7-1.2,1.5-2.8,2.4-4.7s1.7-3.8,2.4-5.5
			l4.3-10.4c1.7-4.2,2.9-7.4,3.5-9.8l-8.4-1v-0.3H927v0.2l-5.1,1.1c-1.1,1.7-2.7,5.1-4.8,10.1l-9.5,22.6c-1.3,3.2-2.3,5.9-3,8.2
			h-0.4c-1.1-3.1-2.2-6-3.4-8.8l-8.8-20.8c-1.7-3.9-3.5-7.7-5.6-11.4l-4.9-1v-0.3H901V725.7z M887.9,726.5l15.9,37.6l1-2.3
			l-14.9-35.3H887.9z"/>
	</g>
	<g>
		<path d="M741.4,875.7l-7.3,1c1,3.7,2.7,8.2,4.9,13.4l3.9,9.1c0.9,2.1,2.1,4.7,3.8,8c0.7-1.2,1.5-2.8,2.4-4.7s1.7-3.8,2.4-5.5
			l4.3-10.4c1.7-4.2,2.9-7.4,3.5-9.8l-8.4-1v-0.3h16.5v0.2l-5.1,1.1c-1.1,1.7-2.7,5.1-4.8,10.1l-9.5,22.6c-1.3,3.2-2.3,5.9-3,8.2
			h-0.4c-1.1-3.1-2.2-6-3.4-8.8l-8.8-20.8c-1.7-3.9-3.5-7.7-5.6-11.4l-4.9-1v-0.3h19.4V875.7z M728.3,876.5l15.9,37.6l1-2.3
			l-14.9-35.3H728.3z"/>
	</g>
	<g>
		<path d="M528.4,927.4l-7.3,1c1,3.7,2.7,8.2,4.9,13.4l3.9,9.1c0.9,2.1,2.1,4.7,3.8,8c0.7-1.2,1.5-2.8,2.4-4.7s1.7-3.8,2.4-5.5
			l4.3-10.4c1.7-4.2,2.9-7.4,3.5-9.8l-8.4-1v-0.3h16.5v0.2l-5.1,1.1c-1.1,1.7-2.7,5.1-4.8,10.1l-9.5,22.6c-1.3,3.2-2.3,5.9-3,8.2
			h-0.4c-1.1-3.1-2.2-6-3.4-8.8l-8.8-20.8c-1.7-3.9-3.5-7.7-5.6-11.4l-4.9-1v-0.3h19.4V927.4z M515.4,928.2l15.9,37.6l1-2.3
			l-14.9-35.3H515.4z"/>
		<path d="M576.6,968.2h-21v-0.3l6.8-1c0.3-2.3,0.6-5.2,0.7-8.5c0.2-3.3,0.2-6.5,0.2-9.7V944c0-6.4-0.3-11.6-0.8-15.6l-6.9-1v-0.3
			h21v0.3l-7,1c-0.2,1.8-0.4,3.5-0.4,4.9c-0.1,1.5-0.2,3.2-0.2,5.3c-0.1,2.1-0.1,4-0.1,5.9v6.2c0,1.1,0,3,0.1,5.6
			c0.1,2.6,0.2,4.8,0.3,6.6c0.1,1.8,0.3,3.1,0.4,4l6.9,1V968.2z M564.1,928.2v38.9h1.9v-38.9H564.1z"/>
	</g>
	<g>
		<path d="M312.4,875.7l-7.3,1c1,3.7,2.7,8.2,4.9,13.4l3.9,9.1c0.9,2.1,2.1,4.7,3.8,8c0.7-1.2,1.5-2.8,2.4-4.7s1.7-3.8,2.4-5.5
			l4.3-10.4c1.7-4.2,2.9-7.4,3.5-9.8l-8.4-1v-0.3h16.5v0.2l-5.1,1.1c-1.1,1.7-2.7,5.1-4.8,10.1l-9.5,22.6c-1.3,3.2-2.3,5.9-3,8.2
			h-0.4c-1.1-3.1-2.2-6-3.4-8.8l-8.8-20.8c-1.7-3.9-3.5-7.7-5.6-11.4l-4.9-1v-0.3h19.4V875.7z M299.4,876.5l15.9,37.6l1-2.3
			l-14.9-35.3H299.4z"/>
		<path d="M360.6,916.5h-21v-0.3l6.8-1c0.3-2.3,0.6-5.2,0.7-8.5c0.2-3.3,0.2-6.5,0.2-9.7v-4.7c0-6.4-0.3-11.6-0.8-15.6l-6.9-1v-0.3
			h21v0.3l-7,1c-0.2,1.8-0.4,3.5-0.4,4.9c-0.1,1.5-0.2,3.2-0.3,5.3c-0.1,2.1-0.1,4-0.1,5.9v6.2c0,1.1,0,3,0.1,5.6
			c0.1,2.6,0.2,4.8,0.3,6.6s0.3,3.1,0.4,4l6.9,1V916.5z M348.1,876.5v38.9h1.9v-38.9H348.1z"/>
		<path d="M382.6,916.5h-21v-0.3l6.8-1c0.3-2.3,0.6-5.2,0.7-8.5c0.2-3.3,0.2-6.5,0.2-9.7v-4.7c0-6.4-0.3-11.6-0.8-15.6l-6.9-1v-0.3
			h21v0.3l-7,1c-0.2,1.8-0.4,3.5-0.4,4.9c-0.1,1.5-0.2,3.2-0.3,5.3c-0.1,2.1-0.1,4-0.1,5.9v6.2c0,1.1,0,3,0.1,5.6
			c0.1,2.6,0.2,4.8,0.3,6.6s0.3,3.1,0.4,4l6.9,1V916.5z M370,876.5v38.9h1.9v-38.9H370z"/>
	</g>
	<g>
		<path d="M166.2,725.7l-7.3,1c1,3.7,2.7,8.2,4.9,13.4l3.9,9.1c0.9,2.1,2.1,4.7,3.8,8c0.7-1.2,1.5-2.8,2.4-4.7s1.7-3.8,2.4-5.5
			l4.3-10.4c1.7-4.2,2.9-7.4,3.5-9.8l-8.4-1v-0.3h16.5v0.2l-5.1,1.1c-1.1,1.7-2.7,5.1-4.8,10.1l-9.5,22.6c-1.3,3.2-2.3,5.9-3,8.2
			h-0.4c-1.1-3.1-2.2-6-3.4-8.8l-8.8-20.8c-1.7-3.9-3.5-7.7-5.6-11.4l-4.9-1v-0.3h19.4V725.7z M153.1,726.5l15.9,37.6l1-2.3
			l-14.9-35.3H153.1z"/>
		<path d="M212.3,766.5h-21v-0.3l6.8-1c0.3-2.3,0.6-5.2,0.7-8.5c0.2-3.3,0.2-6.5,0.2-9.7v-4.7c0-6.4-0.3-11.6-0.8-15.6l-6.9-1v-0.3
			h21v0.3l-7,1c-0.2,1.8-0.4,3.5-0.4,4.9c-0.1,1.5-0.2,3.2-0.3,5.3c-0.1,2.1-0.1,4-0.1,5.9v6.2c0,1.1,0,3,0.1,5.6
			c0.1,2.6,0.2,4.8,0.3,6.6s0.3,3.1,0.4,4l6.9,1V766.5z M199.8,726.5v38.9h1.9v-38.9H199.8z"/>
		<path d="M232.2,766.5h-21v-0.3l6.8-1c0.3-2.3,0.6-5.2,0.7-8.5c0.2-3.3,0.2-6.5,0.2-9.7v-4.7c0-6.4-0.3-11.6-0.8-15.6l-6.9-1v-0.3
			h21v0.3l-7,1c-0.2,1.8-0.4,3.5-0.4,4.9c-0.1,1.5-0.2,3.2-0.3,5.3c-0.1,2.1-0.1,4-0.1,5.9v6.2c0,1.1,0,3,0.1,5.6
			c0.1,2.6,0.2,4.8,0.3,6.6s0.3,3.1,0.4,4l6.9,1V766.5z M219.6,726.5v38.9h1.9v-38.9H219.6z"/>
		<path d="M252,766.5h-21v-0.3l6.8-1c0.3-2.3,0.6-5.2,0.7-8.5c0.2-3.3,0.2-6.5,0.2-9.7v-4.7c0-6.4-0.3-11.6-0.8-15.6l-6.9-1v-0.3h21
			v0.3l-7,1c-0.2,1.8-0.4,3.5-0.4,4.9c-0.1,1.5-0.2,3.2-0.3,5.3c-0.1,2.1-0.1,4-0.1,5.9v6.2c0,1.1,0,3,0.1,5.6
			c0.1,2.6,0.2,4.8,0.3,6.6s0.3,3.1,0.4,4l6.9,1V766.5z M239.5,726.5v38.9h1.9v-38.9H239.5z"/>
	</g>
	<g>
		<path d="M118.6,560.7h-21v-0.3l6.8-1c0.3-2.3,0.6-5.2,0.7-8.5c0.2-3.3,0.2-6.5,0.2-9.7v-4.7c0-6.4-0.3-11.6-0.8-15.6l-6.9-1v-0.3
			h21v0.3l-7,1c-0.2,1.8-0.4,3.5-0.4,4.9c-0.1,1.5-0.2,3.2-0.3,5.3c-0.1,2.1-0.1,4-0.1,5.9v6.2c0,1.1,0,3,0.1,5.6
			c0.1,2.6,0.2,4.8,0.3,6.6s0.3,3.1,0.4,4l6.9,1V560.7z M106.1,520.7v38.9h1.9v-38.9H106.1z"/>
		<path d="M119.2,519.6h23.3v0.3l-8.9,0.9c1,1.6,1.9,3,2.8,4.2c0.9,1.2,1.8,2.5,2.8,3.8c1,1.3,2.2,2.7,3.4,4.1
			c1.2,1.4,2.5,2.9,3.8,4.4c1.4-1.5,3.1-3.3,5-5.5c1.9-2.2,3.6-4.2,5.1-6.1c1.5-1.9,2.6-3.5,3.5-4.9l-8.5-0.9v-0.3h18.6v0.3
			l-6.5,0.9c-1.2,1.1-2.5,2.5-4,4.1s-3.1,3.5-4.7,5.6c-1.7,2-3.1,3.8-4.3,5.4c-1.2,1.6-2,2.8-2.5,3.5c1.1,1.5,2.6,3.4,4.4,5.7
			c1.8,2.3,3.4,4.3,4.9,6.1c1.4,1.8,2.8,3.4,4.1,4.8s2.5,2.7,3.5,3.5l5.2,0.9v0.3h-22.6v-0.3l8.8-1c-1.5-2.6-3.5-5.5-6-8.6
			c-2.5-3.1-4.9-6-7.2-8.5c-1.9,2-3.7,4-5.5,6.1c-1.8,2.1-3.4,4.1-4.9,6.1c-1.5,1.9-2.7,3.6-3.6,4.9l8.5,1v0.3h-18.5v-0.3l6.4-1
			c2.7-2.6,5.5-5.8,8.6-9.6c3.1-3.8,5.6-6.9,7.4-9.6c-1.8-2.4-3.6-4.8-5.5-7.2c-1.9-2.4-3.8-4.7-5.7-7c-1.9-2.3-3.6-4.1-4.8-5.2
			l-6.2-0.9V519.6z M126.9,520.6l31.5,39h2.3l-31.4-39H126.9z"/>
	</g>
	<g>
		<path d="M160.5,315.9h23.3v0.3l-8.9,0.9c1,1.6,1.9,3,2.8,4.2c0.9,1.2,1.8,2.5,2.8,3.8c1,1.3,2.2,2.7,3.4,4.1
			c1.2,1.4,2.5,2.9,3.8,4.4c1.4-1.5,3.1-3.3,5-5.5c1.9-2.2,3.6-4.2,5.1-6.1c1.5-1.9,2.6-3.5,3.5-4.9l-8.5-0.9v-0.3h18.6v0.3
			l-6.5,0.9c-1.2,1.1-2.5,2.5-4,4.1s-3.1,3.5-4.7,5.6c-1.7,2-3.1,3.8-4.3,5.4c-1.2,1.6-2,2.8-2.5,3.5c1.1,1.5,2.6,3.4,4.4,5.7
			c1.8,2.3,3.4,4.3,4.9,6.1s2.8,3.4,4.1,4.8c1.3,1.5,2.5,2.7,3.5,3.5l5.2,0.9v0.3h-22.6v-0.3l8.8-1c-1.5-2.6-3.5-5.5-6-8.6
			c-2.5-3.1-4.9-6-7.2-8.5c-1.9,2-3.7,4-5.5,6.1c-1.8,2.1-3.4,4.1-4.9,6.1c-1.5,1.9-2.7,3.6-3.6,4.9l8.5,1v0.3h-18.5v-0.3l6.4-1
			c2.7-2.6,5.5-5.8,8.6-9.6c3.1-3.8,5.6-6.9,7.4-9.6c-1.8-2.4-3.6-4.8-5.5-7.2c-1.9-2.4-3.8-4.7-5.7-7c-1.9-2.3-3.6-4.1-4.8-5.2
			l-6.2-0.9V315.9z M168.2,316.8l31.5,39h2.3l-31.4-39H168.2z"/>
	</g>
	<g>
		<path d="M295.1,162.8h23.3v0.3l-8.9,0.9c1,1.6,1.9,3,2.8,4.2c0.9,1.2,1.8,2.5,2.8,3.8c1,1.3,2.2,2.7,3.4,4.1
			c1.2,1.4,2.5,2.9,3.8,4.4c1.4-1.5,3.1-3.3,5-5.5c1.9-2.2,3.6-4.2,5.1-6.1c1.5-1.9,2.6-3.5,3.5-4.9l-8.5-0.9v-0.3H346v0.3l-6.5,0.9
			c-1.2,1.1-2.5,2.5-4,4.1s-3.1,3.5-4.7,5.6c-1.7,2-3.1,3.8-4.3,5.4c-1.2,1.6-2,2.8-2.5,3.5c1.1,1.5,2.6,3.4,4.4,5.7
			c1.8,2.3,3.4,4.3,4.9,6.1s2.8,3.4,4.1,4.8c1.3,1.5,2.5,2.7,3.5,3.5l5.2,0.9v0.3h-22.6v-0.3l8.8-1c-1.5-2.6-3.5-5.5-6-8.6
			c-2.5-3.1-4.9-6-7.2-8.5c-1.9,2-3.7,4-5.5,6.1c-1.8,2.1-3.4,4.1-4.9,6.1c-1.5,1.9-2.7,3.6-3.6,4.9l8.5,1v0.3H295v-0.3l6.4-1
			c2.7-2.6,5.5-5.8,8.6-9.6c3.1-3.8,5.6-6.9,7.4-9.6c-1.8-2.4-3.6-4.8-5.5-7.2c-1.9-2.4-3.8-4.7-5.7-7c-1.9-2.3-3.6-4.1-4.8-5.2
			l-6.2-0.9V162.8z M302.8,163.7l31.5,39h2.3l-31.4-39H302.8z"/>
		<path d="M368.1,203.9h-21v-0.3l6.8-1c0.3-2.3,0.6-5.2,0.7-8.5c0.2-3.3,0.2-6.5,0.2-9.7v-4.7c0-6.4-0.3-11.6-0.8-15.6l-6.9-1v-0.3
			h21v0.3l-7,1c-0.2,1.8-0.4,3.5-0.4,4.9c-0.1,1.5-0.2,3.2-0.3,5.3c-0.1,2.1-0.1,4-0.1,5.9v6.2c0,1.1,0,3,0.1,5.6
			c0.1,2.6,0.2,4.8,0.3,6.6s0.3,3.1,0.4,4l6.9,1V203.9z M355.6,163.9v38.9h1.9v-38.9H355.6z"/>
	</g>
</g>
<g id="rondInt">
	<path d="M538.5,43c67.2,0,132.4,13.2,193.8,39.1c59.3,25.1,112.6,61,158.3,106.7c45.7,45.7,81.6,99,106.7,158.3
		c26,61.4,39.1,126.6,39.1,193.8s-13.2,132.4-39.1,193.8c-25.1,59.3-61,112.6-106.7,158.3c-45.7,45.7-99,81.6-158.3,106.7
		c-61.4,26-126.6,39.1-193.8,39.1s-132.4-13.2-193.8-39.1c-59.3-25.1-112.6-61-158.3-106.7c-45.7-45.7-81.6-99-106.7-158.3
		c-26-61.4-39.1-126.6-39.1-193.8s13.2-132.4,39.1-193.8c25.1-59.3,61-112.6,106.7-158.3s99-81.6,158.3-106.7
		C406,56.1,471.3,43,538.5,43 M538.5,41c-276.1,0-500,223.9-500,500s223.9,500,500,500s500-223.9,500-500S814.6,41,538.5,41
		L538.5,41z"/>
</g>
<g id="rondExt">
	<path d="M538.5,62c64.7,0,127.4,12.7,186.4,37.6c57,24.1,108.3,58.7,152.3,102.7c44,44,78.5,95.2,102.7,152.3
		c25,59.1,37.6,121.8,37.6,186.4s-12.7,127.4-37.6,186.4c-24.1,57-58.7,108.3-102.7,152.3c-44,44-95.2,78.5-152.3,102.7
		c-59.1,25-121.8,37.6-186.4,37.6s-127.4-12.7-186.4-37.6c-57-24.1-108.3-58.7-152.3-102.7c-44-44-78.5-95.2-102.7-152.3
		c-25-59.1-37.6-121.8-37.6-186.4s12.7-127.4,37.6-186.4c24.1-57,58.7-108.3,102.7-152.3S295,123.7,352,99.6
		C411.1,74.6,473.8,62,538.5,62 M538.5,61c-265.1,0-480,214.9-480,480s214.9,480,480,480s480-214.9,480-480S803.6,61,538.5,61
		L538.5,61z"/>
</g>
</svg>
